<?xml version="1.0" standalone="no"?>
<!DOCTYPE svg PUBLIC "-//W3C//DTD SVG 20010904//EN"
 "http://www.w3.org/TR/2001/REC-SVG-20010904/DTD/svg10.dtd">
<svg version="1.0" xmlns="http://www.w3.org/2000/svg"
 width="48.000000pt" height="48.000000pt" viewBox="0 0 48.000000 48.000000"
 preserveAspectRatio="xMidYMid meet">

<g transform="translate(0.000000,48.000000) scale(0.100000,-0.100000)"
fill="#000000" stroke="none">
<path d="M140 428 c-69 -37 -104 -94 -108 -176 -3 -56 0 -74 20 -112 37 -69
94 -104 176 -108 56 -3 74 0 112 20 69 37 104 94 108 176 3 56 0 74 -20 112
-37 69 -94 104 -176 108 -56 3 -74 0 -112 -20z m194 -32 c55 -32 86 -89 86
-155 0 -29 -7 -65 -15 -81 l-15 -29 -47 24 c-33 18 -62 25 -103 25 -41 0 -70
-7 -103 -25 l-47 -24 -15 29 c-23 45 -19 128 9 174 51 84 164 112 250 62z"/>
<path d="M182 347 c-50 -53 -13 -137 59 -137 47 0 79 34 79 81 0 71 -90 107
-138 56z"/>
</g>
</svg>
